<?xml version="1.0" standalone="no"?>
<!DOCTYPE svg PUBLIC "-//W3C//DTD SVG 20010904//EN"
 "http://www.w3.org/TR/2001/REC-SVG-20010904/DTD/svg10.dtd">
<svg version="1.0" xmlns="http://www.w3.org/2000/svg"
 width="456.000000pt" height="402.000000pt" viewBox="0 0 456.000000 402.000000"
 preserveAspectRatio="xMidYMid meet">

<g transform="translate(0.000000,402.000000) scale(0.100000,-0.100000)"
fill="#000000" stroke="none">
<path d="M2174 3991 c-22 -10 -57 -38 -78 -62 -32 -37 -1894 -3250 -2037
-3515 -44 -82 -49 -97 -49 -155 1 -106 53 -187 150 -233 l45 -21 2075 0 2075
0 45 21 c96 45 149 128 150 233 0 58 -5 73 -49 155 -143 265 -2005 3478 -2037
3515 -50 58 -102 81 -184 81 -42 0 -79 -7 -106 -19z m170 -153 c14 -13 481
-813 1038 -1778 822 -1426 1013 -1763 1016 -1797 3 -37 0 -47 -26 -73 l-30
-30 -2062 0 -2062 0 -30 30 c-26 26 -29 36 -26 73 3 34 194 371 1016 1797 557
965 1024 1765 1038 1778 17 15 38 22 64 22 26 0 47 -7 64 -22z"/>
<path d="M2219 2890 c-109 -19 -217 -108 -261 -218 -23 -57 -23 -60 -23 -522
0 -462 0 -465 23 -522 32 -79 99 -150 178 -189 55 -27 74 -32 142 -32 64 0 90
5 141 28 77 35 150 112 183 193 23 57 23 59 23 522 0 463 0 465 -23 522 -62
153 -223 245 -383 218z m141 -162 c24 -13 58 -40 74 -61 l31 -39 0 -478 0
-478 -31 -39 c-46 -56 -86 -76 -154 -76 -68 0 -108 20 -154 76 l-31 39 0 478
0 478 31 39 c36 46 105 83 154 83 20 0 56 -10 80 -22z"/>
<path d="M2200 1226 c-115 -26 -202 -95 -253 -204 -29 -60 -32 -77 -32 -157 0
-78 4 -98 29 -152 30 -66 105 -147 165 -177 18 -10 64 -24 102 -32 125 -26
249 15 338 111 24 26 55 72 69 103 23 49 27 70 27 147 0 80 -3 97 -31 155 -55
116 -146 186 -269 209 -69 13 -74 13 -145 -3z m131 -147 c96 -21 169 -113 169
-214 0 -66 -27 -123 -80 -167 -140 -121 -360 -19 -360 167 0 96 68 187 157
211 61 16 53 16 114 3z"/>
</g>
</svg>
